<svg version="1.1" viewBox="0 0 106.3 66.25" xmlns="http://www.w3.org/2000/svg"><title>Living-Room</title> <g transform="translate(-21.83,-43.17)" data-name="Laag 1"> <path class="cls-1" d="m121.7 63.23v-8.65a11.43 11.43 0 0 0-11.42-11.41h-70.5a11.43 11.43 0 0 0-11.42 11.41v8.65a8.43 8.43 0 0 0-6.5 8.19v27.33a6.43 6.43 0 0 0 6.42 6.42h1.92v2.83a1.43 1.43 0 0 0 1.42 1.42h12.32a1.43 1.43 0 0 0 1.42-1.42v-2.8h59.34v2.8a1.43 1.43 0 0 0 1.42 1.42h12.32a1.43 1.43 0 0 0 1.42-1.42v-2.8h1.92a6.43 6.43 0 0 0 6.42-6.42v-27.36a8.43 8.43 0 0 0-6.5-8.19zm-81.92-17.23h70.5a8.59 8.59 0 0 1 8.58 8.58v8.47a8.44 8.44 0 0 0-7.5 8.37v2.91h-72.66v-2.91a8.44 8.44 0 0 0-7.5-8.37v-8.47a8.59 8.59 0 0 1 8.58-8.58zm-1.08 41.17v-10h34.91v10zm37.75-10h34.91v10h-34.91zm-33.93 29.38h-9.49v-1.38h9.48zm74.5 0h-9.48v-1.38h9.49zm8.34-7.8a3.58 3.58 0 0 1-3.58 3.58h-93.5a3.58 3.58 0 0 1-3.58-3.58v-27.33a5.58 5.58 0 1 1 11.16 0v17.16a1.42 1.42 0 0 0 1.42 1.42h75.5a1.42 1.42 0 0 0 1.42-1.42v-17.16a5.58 5.58 0 1 1 11.16 0z"></path> </g> </svg>