<svg xmlns="http://www.w3.org/2000/svg" viewBox="0 0 116.8 67.1"> <path d="m57.2 23.7a1.4 1.4 0 0 0-1.4 1.4v40.5a1.4 1.4 0 1 0 2.8 0v-39.1h6.5a1.4 1.4 0 1 0 0-2.8z"></path> <path d="m96.4 23.7a1.4 1.4 0 1 0 0 2.8h6.3v39.1a1.4 1.4 0 1 0 2.8 0v-40.5a1.4 1.4 0 0 0-1.4-1.4z"></path> <path d="m74.4 38.7c-1.1 0-2.3 0.4-3.2 1.2-0.9 0.8-1.4 2.1-1.3 3.6a1.4 1.4 0 1 0 2.8-0.2c0-0.7 0.2-1.1 0.5-1.3 0.3-0.3 0.8-0.4 1.2-0.4s1 0.2 1.2 0.4c0.3 0.3 0.5 0.6 0.4 1.3a1.4 1.4 0 1 0 2.8 0.2c0.1-1.5-0.5-2.8-1.4-3.6-0.9-0.8-2-1.2-3.2-1.2z"></path> <path d="m77.5 42a1.4 1.4 0 0 0-1.5 1.5c0.1 1.3 0.7 2.5 1.5 3.2 0.9 0.7 1.9 1.1 3 1.1 1.1 0 2.1-0.3 3-1.1 0.9-0.7 1.5-1.9 1.5-3.2a1.4 1.4 0 1 0-2.8-0.2c0 0.6-0.2 1-0.5 1.2-0.3 0.2-0.7 0.4-1.2 0.4-0.4 0-0.9-0.1-1.2-0.4-0.3-0.2-0.5-0.6-0.5-1.2a1.4 1.4 0 0 0-1.4-1.4z"></path> <path d="m86.8 38.9c-1.1 0-2.2 0.4-3.1 1.1-0.9 0.8-1.4 2-1.4 3.4a1.4 1.4 0 1 0 2.8 0c0-0.7 0.2-1 0.5-1.3 0.3-0.3 0.7-0.4 1.2-0.4s0.9 0.2 1.2 0.4c0.3 0.3 0.5 0.6 0.5 1.3a1.4 1.4 0 1 0 2.8 0c0-1.4-0.6-2.6-1.4-3.4-0.9-0.8-2-1.1-3.1-1.1z"></path> <path d="m65.1 15.6a1.4 1.4 0 0 0-1.4 1.4v26.5a1.4 1.4 0 0 0 0 0.1c0.1 1.3 0.7 2.5 1.5 3.2 0.9 0.7 1.9 1.1 3 1.1 1.1 0 2.1-0.3 3-1.1 0.9-0.7 1.5-1.9 1.5-3.2a1.4 1.4 0 1 0-2.8-0.2c0 0.6-0.2 1-0.5 1.2-0.3 0.2-0.7 0.4-1.2 0.4-0.4 0-0.9-0.1-1.2-0.4-0.3-0.2-0.5-0.6-0.5-1.2v-25h28.2v25c0 0.6-0.2 1-0.5 1.2-0.3 0.2-0.7 0.4-1.2 0.4s-0.9-0.1-1.2-0.4-0.5-0.6-0.5-1.2a1.4 1.4 0 1 0-2.8 0.2c0.1 1.3 0.7 2.5 1.5 3.2 0.9 0.7 1.9 1.1 3 1.1s2.1-0.3 3-1.1c0.9-0.7 1.5-1.9 1.5-3.2a1.4 1.4 0 0 0 0-0.1v-26.5a1.4 1.4 0 0 0-1.4-1.4z"></path> <path d="m47.4 15.6c-1.8 0-3.2 1.5-3.2 3.2v4.6c0 1.8 1.5 3.2 3.2 3.2h9.7a1.4 1.4 0 1 0 0-2.8h-9.6c-0.2 0-0.4-0.2-0.4-0.4v-4.6c0-0.2 0.2-0.4 0.4-0.4h66.2c0.2 0 0.4 0.2 0.4 0.4v4.5a1.4 1.4 0 0 0 0 0c0 0.2-0.1 0.4-0.4 0.4h-9.6a1.4 1.4 0 1 0 0 2.8h9.7a1.4 1.4 0 0 0 0 0c1.8 0 3.2-1.5 3.2-3.3v-4.5c0-1.7-1.4-3.2-3.2-3.2a1.4 1.4 0 0 0 0 0z"></path> <path d="m11.5 33.9a1.4 1.4 0 0 0-1.4 1.4v7a1.4 1.4 0 0 0 0.1 0.6 1.4 1.4 0 0 0 1.3 2h32.2c1.9 0 3.4-1.5 3.4-3.4v-4.2c0-1.9-1.5-3.4-3.4-3.4zm1.4 2.8h30.7c0.3 0 0.6 0.2 0.6 0.6v4.2c0 0.3-0.2 0.6-0.6 0.6h-30.7z"></path> <path d="m9.4 25a1.4 1.4 0 0 0-1.3 1.8l2.1 8.9a1.4 1.4 0 1 0 2.8-0.6l-2.1-8.9a1.4 1.4 0 0 0-1.4-1.1z"></path> <path d="m2.8 0.3c-2 0.5-3.2 2.5-2.7 4.4l4.8 20.5c0.5 2 2.4 3.2 4.4 2.7l1-0.2c2-0.5 3.2-2.4 2.7-4.4l-4.8-20.4c-0.5-2-2.4-3.2-4.4-2.7zm0.6 2.8 1-0.2c0.5-0.1 0.9 0.1 1 0.6l4.8 20.5c0.1 0.5-0.2 0.9-0.6 1l-1 0.2c-0.5 0.1-0.9-0.1-1-0.6l-4.8-20.4c-0.1-0.5 0.1-0.9 0.6-1z"></path> <path d="m11.6 40.9a1.4 1.4 0 0 0-1.4 1.1l-5.8 23.3a1.4 1.4 0 1 0 2.7 0.7l5.8-23.3a1.4 1.4 0 0 0-1.3-1.8z"></path> <path d="m40.6 42a1.4 1.4 0 0 0-1.4 1.4v22.2a1.4 1.4 0 1 0 2.8 0v-22.2a1.4 1.4 0 0 0-1.4-1.4z"></path> <path d="m72.2 1.8a1.4 1.4 0 0 0-1.4 1.4v13.4a1.4 1.4 0 0 0 1.4 1.4h16.7a1.4 1.4 0 0 0 1.4-1.4v-13.4a1.4 1.4 0 0 0-1.4-1.4zm1.4 2.8h13.9v10.6h-13.9z"></path> <path d="m69.3 1.8a1.4 1.4 0 1 0 0 2.8h22.5a1.4 1.4 0 1 0 0-2.8z"></path> </svg>