<svg version="1.1" viewBox="0 0 100.7 65.73" xmlns="http://www.w3.org/2000/svg"><title>Kitchen</title> <g transform="translate(-22.64,-43.69)" data-name="Laag 1"> <path class="cls-1" d="m116.9 43.69h-87.83a6.43 6.43 0 0 0-6.42 6.42v44.17a6.42 6.42 0 0 0 5.12 6.28v7.44a1.42 1.42 0 0 0 1.42 1.42h6.53a1.42 1.42 0 0 0 1.41-1.42v-7.28h71.71v7.28a1.42 1.42 0 0 0 1.42 1.42h6.52a1.42 1.42 0 0 0 1.42-1.42v-7.41a6.42 6.42 0 0 0 5.12-6.28v-44.2a6.43 6.43 0 0 0-6.42-6.42zm-91.41 50.59v-44.17a3.58 3.58 0 0 1 3.58-3.58h64.36v51.33h-64.36a3.58 3.58 0 0 1-3.58-3.58zm8.81 12.27h-3.7v-5.86h3.7zm81.07 0h-3.7v-5.86h3.7zm5.11-12.27a3.58 3.58 0 0 1-3.58 3.58h-20.64v-51.33h20.64a3.58 3.58 0 0 1 3.58 3.58z"></path> <path class="cls-1" d="m31.56 93.19h55.77a1.41 1.41 0 0 0 1.42-1.41v-39.17a1.42 1.42 0 0 0-1.42-1.42h-55.77a1.43 1.43 0 0 0-1.42 1.42v39.17a1.42 1.42 0 0 0 1.42 1.41zm1.44-39.19h52.92v36.36h-52.92z"></path> <path class="cls-1" d="m108.4 52.91a8.75 8.75 0 1 0 8.75 8.75 8.76 8.76 0 0 0-8.75-8.75zm-5.91 8.75a5.92 5.92 0 0 1 4.5-5.74v11.47a5.91 5.91 0 0 1-4.5-5.73zm7.33 5.73v-11.47a5.9 5.9 0 0 1 0 11.47z"></path> <path class="cls-1" d="m108.4 74a8.75 8.75 0 1 0 8.75 8.75 8.76 8.76 0 0 0-8.75-8.75zm-5.91 8.75a5.93 5.93 0 0 1 4.55-5.75v11.47a5.93 5.93 0 0 1-4.55-5.74zm7.33 5.74v-11.49a5.91 5.91 0 0 1 0 11.48z"></path> <path class="cls-1" d="m68.35 65a1.42 1.42 0 0 0-2-0.22l-17.44 14a1.42 1.42 0 0 0 1.78 2.21l17.45-13.99a1.41 1.41 0 0 0 0.21-2z"></path> <path class="cls-1" d="m68.56 72.24-8.56 6.89a1.42 1.42 0 0 0 0.89 2.52 1.39 1.39 0 0 0 0.88-0.31l8.57-6.89a1.42 1.42 0 1 0-1.77-2.21z"></path> <path class="cls-1" d="m50.33 72.15 8.57-6.9a1.431 1.431 0 0 0-1.77-2.25l-8.57 6.9a1.42 1.42 0 0 0 0.89 2.52 1.39 1.39 0 0 0 0.88-0.27z"></path> </g> </svg>