<svg version="1.1" viewBox="0 0 64.89 84.13" xmlns="http://www.w3.org/2000/svg"> <g transform="translate(-41.68,-28.96)" fill="none" stroke-linecap="round" stroke-linejoin="round" stroke-width="2.83px" class="use-stroke"> <path d="m43.12 46.05h61.98m-61.98 57.25h61.98m-56.98-72.93h52.01c2.77 0 5 2.23 5 5v71.3c0 2.77-2.23 5-5 5h-52.01c-2.77 0-5-2.23-5-5v-71.3c0-2.77 2.23-5 5-5z"></path> </g> <g transform="translate(-41.68,-28.96)"> <path d="m79.23 38.07a2.78 2.78 0 0 1-2.78 2.78 2.78 2.78 0 0 1-2.78-2.78 2.78 2.78 0 0 1 2.78-2.78 2.78 2.78 0 0 1 2.78 2.78zm9.04 0a2.78 2.78 0 0 1-2.78 2.78 2.78 2.78 0 0 1-2.78-2.78 2.78 2.78 0 0 1 2.78-2.78 2.78 2.78 0 0 1 2.78 2.78zm9.05 0a2.78 2.78 0 0 1-2.78 2.78 2.78 2.78 0 0 1-2.78-2.78 2.78 2.78 0 0 1 2.78-2.78 2.78 2.78 0 0 1 2.78 2.78z"></path> <path d="m51.03 35.29h8.52v5.57h-8.52zm11.3 2.78a2.78 2.78 0 0 1-2.78 2.78 2.78 2.78 0 0 1-2.78-2.78 2.78 2.78 0 0 1 2.78-2.78 2.78 2.78 0 0 1 2.78 2.78zm-8.52 0a2.78 2.78 0 0 1-2.78 2.78 2.78 2.78 0 0 1-2.78-2.78 2.78 2.78 0 0 1 2.78-2.78 2.78 2.78 0 0 1 2.78 2.78z"></path> </g> <path d="m47.33 45.83a15.5 15.5 0 0 1-15.5 15.5 15.5 15.5 0 0 1-15.5-15.5 15.5 15.5 0 0 1 15.5-15.5 15.5 15.5 0 0 1 15.5 15.5zm5.53 0a21.03 21.03 0 0 1-21.03 21.03 21.03 21.03 0 0 1-21.03-21.03 21.03 21.03 0 0 1 21.03-21.03 21.03 21.03 0 0 1 21.03 21.03z" fill="none" stroke-linecap="round" stroke-linejoin="round" stroke-width="2.83px" class="use-stroke"></path> </svg>