<svg version="1.1" viewBox="0 0 104 68.84" xmlns="http://www.w3.org/2000/svg"><title>Bedroom</title> <g transform="translate(-23,-40.58)" data-name="Laag 1"> <path class="cls-1" d="m24.4 109.4h6.53a1.43 1.43 0 0 0 1.42-1.39v-13h85.3v13a1.43 1.43 0 0 0 1.42 1.42h6.53a1.43 1.43 0 0 0 1.4-1.42v-32.9a6.42 6.42 0 0 0-6.22-6.4v-21.7a6.43 6.43 0 0 0-6.42-6.42h-78.59a6.43 6.43 0 0 0-6.41 6.42v21.69a6.42 6.42 0 0 0-6.36 6.41v32.9a1.43 1.43 0 0 0 1.4 1.39zm99.78-17.2h-98.36v-6h98.36zm-94.67 14.36h-3.69v-11.55h3.69zm94.67 0h-3.69v-11.55h3.69zm-91.99-59.55a3.58 3.58 0 0 1 3.58-3.58h78.61a3.58 3.58 0 0 1 3.62 3.58v21.69h-8.45v-9.58a6.43 6.43 0 0 0-6.42-6.42h-17.78a6.43 6.43 0 0 0-6.42 6.42v9.58h-7.71v-9.58a6.43 6.43 0 0 0-6.41-6.42h-17.75a6.43 6.43 0 0 0-6.42 6.42v9.58h-8.45zm74.49 21.66h-24.91v-9.55a3.59 3.59 0 0 1 3.58-3.59h17.75a3.58 3.58 0 0 1 3.58 3.59zm-38.29 0h-24.92v-9.55a3.59 3.59 0 0 1 3.59-3.59h17.75a3.59 3.59 0 0 1 3.58 3.59zm-39 2.83h91.2a3.59 3.59 0 0 1 3.58 3.58v8.28h-98.35v-8.25a3.59 3.59 0 0 1 3.58-3.58z"></path> </g> </svg>