<svg viewBox="0 0 88.97 92.87" xmlns="http://www.w3.org/2000/svg"> <g transform="translate(-30.65 -28.72)"> <path d="m63.15 28.72c-2.893 0-5.361 1.253-7.121 3.152s-2.871 4.411-3.361 7.088a1.415 1.415 0 0 0 0 2e-3l-3.65 20c-0.8651 4.734 1.132 9.13 4.416 12.22 3.284 3.095 7.868 5.014 12.55 5.014h7.891a1.415 1.415 0 0 0-0.1465 0.6445v2.416h-18.14a1.415 1.415 0 0 0-0.0039 0c-2.836 0.0075-5.164 2.334-5.172 5.17a1.415 1.415 0 0 0 0 0.0039v2.32c-3e-6 0.8627 0.2679 1.643 0.6465 2.361-0.6792 0.0021-1.477 0.0039-1.561 0.0039a1.415 1.415 0 0 0-0.02734 0c-1.363 0.02557-2.208-0.274-2.836-0.7461-0.6278-0.4721-1.093-1.182-1.439-2.191-0.692-2.02-0.7469-5.119-0.707-8.299 0.03982-3.18 0.1687-6.429-0.5469-9.133-0.3578-1.352-0.9535-2.614-2.006-3.537-1.051-0.9221-2.515-1.396-4.188-1.344h-0.0059l-5.684 0.1602a1.416 1.416 0 1 0 0.07813 2.83l5.691-0.1602a1.415 1.415 0 0 0 0.0039 0c1.143-0.03651 1.757 0.2201 2.236 0.6406s0.8676 1.116 1.137 2.133c0.5382 2.034 0.4933 5.165 0.4531 8.373-0.04018 3.208-0.08044 6.503 0.8613 9.252 0.4709 1.374 1.225 2.643 2.414 3.537s2.755 1.349 4.59 1.314c0.1395 0 1.169 3.52e-4 2.227-0.0059 0.5346-0.0031 1.07-0.0084 1.496-0.01563 0.2132-0.0036 0.3997-0.0083 0.5508-0.01367 0.1511-0.0053 0.1275 0.02414 0.4688-0.03906a1.415 1.415 0 0 0 0.3906-0.127c0.3121 0.06031 0.5992 0.1905 0.9277 0.1914a1.415 1.415 0 0 0 0.0039 0h18.14v9.111c-2.542 0.104-5.078 0.4282-7.555 1.098a1.415 1.415 0 0 0-2e-3 0c-2.623 0.7163-5.121 1.837-7.4 3.32-2.041 1.306-3.788 3.023-5.127 5.043a1.415 1.415 0 0 0-0.2441 0.7676c-0.04574-1e-3 -0.08474-0.0197-0.1309-0.0195-2.831 8e-3 -5.15 2.334-5.15 5.164 8e-6 2.242 1.409 4.037 3.191 4.773 1.783 0.7369 4.048 0.4625 5.631-1.125 1.583-1.588 1.853-3.854 1.111-5.635-0.4003-0.961-1.126-1.788-2.045-2.367 1.123-1.692 2.587-3.131 4.299-4.225a1.415 1.415 0 0 0 0.0098-6e-3c2.033-1.323 4.258-2.32 6.598-2.959 2.235-0.6041 4.521-0.8977 6.814-1v7.664c-2.143 0.6281-3.754 2.542-3.75 4.879v2e-3c2e-6 6.6e-4 -1e-6 1e-3 0 2e-3 0.0017 2.239 1.409 4.03 3.189 4.768 1.781 0.7377 4.045 0.4652 5.629-1.119s1.857-3.848 1.119-5.629c-0.5733-1.384-1.795-2.519-3.357-2.967v-7.598c2.283 0.104 4.56 0.3966 6.785 0.998 2.34 0.6381 4.565 1.636 6.598 2.959a1.415 1.415 0 0 0 0.0098 6e-3c1.713 1.095 3.179 2.536 4.303 4.23a1.415 1.415 0 0 0 0.04687 0.0664c-1.44 0.9203-2.455 2.459-2.451 4.281v2e-3c2e-6 6.6e-4 -2e-6 1e-3 0 2e-3 0.0017 2.239 1.407 4.03 3.188 4.768 1.781 0.7377 4.045 0.4652 5.629-1.119 1.584-1.584 1.857-3.848 1.119-5.629-0.7377-1.781-2.531-3.188-4.771-3.188h-0.009742c-0.05117 0-0.09371 0.0278-0.1445 0.0293a1.415 1.415 0 0 0-0.2461-0.7773c-1.339-2.02-3.086-3.737-5.127-5.043-2.279-1.484-4.776-2.605-7.4-3.32a1.415 1.415 0 0 0-2e-3 0c-2.467-0.6668-4.994-0.9899-7.525-1.096v-9.113h18.14a1.415 1.415 0 0 0 0.0039 0c0.3102-8.22e-4 0.5813-0.1257 0.877-0.1797a1.415 1.415 0 0 0 0.4414 0.1562c0.3413 0.0632 0.3196 0.03373 0.4707 0.03906 0.1511 0.0053 0.3356 0.01007 0.5488 0.01367 0.4265 0.0072 0.9615 0.01053 1.496 0.01367 1.057 0.0062 2.087 0.0059 2.227 0.0059 1.835 0.03443 3.401-0.4203 4.59-1.314 1.189-0.8942 1.945-2.161 2.416-3.535 0.9418-2.749 0.9015-6.044 0.8613-9.252-0.0402-3.208-0.087-6.339 0.4512-8.373 0.2691-1.017 0.6574-1.714 1.137-2.135s1.094-0.6771 2.236-0.6406a1.415 1.415 0 0 0 6e-3 0l5.689 0.1602a1.415 1.415 0 1 0 0.0801-2.828l-5.686-0.1602h-6e-3c-1.672-0.05213-3.136 0.4197-4.188 1.342-1.052 0.9233-1.648 2.185-2.006 3.537-0.7156 2.704-0.5847 5.953-0.5449 9.133 0.0398 3.18-0.017 6.279-0.709 8.299-0.346 1.01-0.8117 1.719-1.439 2.191-0.6278 0.4721-1.473 0.7736-2.836 0.748a1.415 1.415 0 0 0-0.0273-2e-3c-0.0852 0-0.8912-0.0017-1.586-0.0039 0.3924-0.7285 0.6719-1.521 0.6719-2.4v-2.32a1.415 1.415 0 0 0 0-0.0039c-0.0075-2.836-2.335-5.162-5.172-5.17a1.415 1.415 0 0 0-0.0039 0h-18.14v-2.416a1.415 1.415 0 0 0-0.1465-0.6445h7.912c4.679 0 9.262-1.919 12.55-5.014 3.284-3.095 5.279-7.49 4.414-12.22v-2e-3l-3.648-20a1.415 1.415 0 0 0-2e-3 -2e-3c-0.4908-2.678-1.604-5.189-3.365-7.088s-4.226-3.152-7.115-3.152zm0 2.83h24c2.101 0 3.73 0.8324 5.041 2.246s2.247 3.441 2.656 5.674l3.65 20c0.674 3.685-0.8292 7.073-3.572 9.658-2.743 2.585-6.714 4.242-10.61 4.242h-18.34c-3.891 0-7.862-1.657-10.61-4.242-2.743-2.585-4.246-5.973-3.572-9.658l3.648-20c0.4094-2.233 1.345-4.261 2.654-5.674s2.938-2.246 5.045-2.246zm-7.566 50.54h19.33a1.415 1.415 0 0 0 0.4512 0h19.33c1.312 0.0035 2.346 1.035 2.35 2.348v2.316c5e-6 1.315-1.035 2.352-2.35 2.355h-19.32a1.415 1.415 0 0 0-0.4668 0h-19.32c-1.315-0.0035-2.35-1.041-2.35-2.355v-2.316c0.0035-1.312 1.037-2.344 2.35-2.348zm-2.311 32c1.101-3e-3 1.817 0.6068 2.162 1.436 0.3452 0.8288 0.2756 1.767-0.502 2.547-0.7775 0.7796-1.715 0.8528-2.545 0.5098s-1.443-1.057-1.443-2.158c-4e-6 -1.304 1.024-2.331 2.328-2.334zm21.86 0a1.415 1.415 0 0 0 0.0039 0c1.1 0 1.813 0.6124 2.156 1.441s0.272 1.765-0.5059 2.543c-0.7779 0.7779-1.716 0.8512-2.545 0.5078s-1.441-1.058-1.441-2.158a1.415 1.415 0 0 0 0-4e-3c-0.0035-1.306 1.026-2.334 2.332-2.33zm21.86 0h0.0098c1.1 0 1.815 0.6124 2.158 1.441s0.2701 1.765-0.5078 2.543c-0.7779 0.7779-1.714 0.8512-2.543 0.5078-0.829-0.3433-1.441-1.058-1.441-2.158a1.415 1.415 0 0 0 0-4e-3c-0.003519-1.303 1.021-2.33 2.324-2.33z"></path> </g> </svg>