<svg viewBox="0 0 124.2 66.71" xmlns="http://www.w3.org/2000/svg"> <g transform="translate(-12.04 -42.52)"> <path class="cls-1" d="m114 64.68a22.25 22.25 0 0 0-4.79 0.52l-6.27-21.79a1.08 1.08 0 0 0-0.13-0.29 1.94 1.94 0 0 0-0.23-0.26l-0.07-0.06-0.25-0.16h-0.06a1.23 1.23 0 0 0-0.34-0.11h-16.24a1.42 1.42 0 1 0 0 2.83h13.29l-5.36 8.04h-42.55l-3.17-4.85h5.35a1.42 1.42 0 0 0 0-2.84h-11.61a1.42 1.42 0 0 0 0 2.84h2.86l4.15 6.36-5.68 11.49a22.27 22.27 0 1 0 13.55 22.92l15.71 0.68h0.06a1.51 1.51 0 0 0 0.47-0.09h0.11a2 2 0 0 0 0.39-0.25 1.92 1.92 0 0 0 0.18-0.22l22.12-33.83 5.51-8.45 5.44 18.84a22.27 22.27 0 1 0 7.51-1.3zm-22.31-8.45-19.47 29.77-19.4-29.77zm-41.31 1.44 19.14 29.33-12.95-0.56a22.29 22.29 0 0 0-11.14-18.77zm3.34 28.69-17.17-0.74 7.62-15.39a19.42 19.42 0 0 1 9.55 16.13zm-19.41 20a19.44 19.44 0 1 1 7.32-37.36l-8.63 17.32a1.41 1.41 0 0 0 1.21 2l19.35 0.83a19.45 19.45 0 0 1-19.25 17.23zm79.64 0a19.42 19.42 0 0 1-6.72-37.65l5.35 18.61a1.421 1.421 0 1 0 2.73-0.79l-5.31-18.6a19.43 19.43 0 1 1 4 38.45z"></path> </g> </svg>