<svg version="1.1" viewBox="0 0 124 66" xmlns="http://www.w3.org/2000/svg"> <g transform="translate(-9.29,-37.67)"> <path d="m38.18 58.29c-6.818 0-12.38 5.557-12.38 12.38 0 6.818 5.557 12.38 12.38 12.38 6.818 0 12.38-5.557 12.38-12.38 0-6.818-5.557-12.38-12.38-12.38zm0 2.83c5.288 0 9.545 4.257 9.545 9.545s-4.257 9.545-9.545 9.545-9.545-4.257-9.545-9.545 4.257-9.545 9.545-9.545z"></path> <path d="m71.27 58.29c-6.818 0-12.38 5.557-12.38 12.38 0 6.818 5.557 12.38 12.38 12.38 6.818 0 12.38-5.557 12.38-12.38 0-6.818-5.557-12.38-12.38-12.38zm0 2.83c5.288 0 9.545 4.257 9.545 9.545s-4.257 9.545-9.545 9.545-9.545-4.257-9.545-9.545 4.257-9.545 9.545-9.545z"></path> <path d="m104.4 58.29c-6.818 0-12.37 5.557-12.37 12.38 0 6.818 5.557 12.38 12.37 12.38 6.818 0 12.38-5.557 12.38-12.38 0-6.818-5.557-12.38-12.38-12.38zm0 2.83c5.288 0 9.545 4.257 9.545 9.545s-4.257 9.545-9.545 9.545-9.545-4.257-9.545-9.545 4.257-9.545 9.545-9.545z"></path> </g> </svg>